<?xml version="1.0" standalone="no"?>
<!DOCTYPE svg PUBLIC "-//W3C//DTD SVG 20010904//EN"
 "http://www.w3.org/TR/2001/REC-SVG-20010904/DTD/svg10.dtd">
<svg version="1.0" xmlns="http://www.w3.org/2000/svg"
 width="4164.000000pt" height="4164.000000pt" viewBox="0 0 4164.000000 4164.000000"
 preserveAspectRatio="xMidYMid meet">
<metadata>
Created by potrace 1.11, written by Peter Selinger 2001-2013
</metadata>
<g transform="translate(0.000000,4164.000000) scale(0.100000,-0.100000)"
fill="#000000" stroke="none">
<path d="M17038 41218 l-3 -413 -225 -7 c-2421 -77 -4807 -855 -6830 -2226
-2215 -1501 -3912 -3644 -4867 -6142 -521 -1364 -805 -2809 -842 -4295 -31
-1199 81 -2481 310 -3570 553 -2624 1830 -4746 3810 -6329 1059 -846 2367
-1555 3834 -2079 2210 -788 4894 -1222 8215 -1327 195 -6 427 -15 515 -18
l160 -7 0 -6585 0 -6585 -527 -3 -528 -2 0 -810 0 -810 2375 0 2375 0 0 810 0
810 -587 2 -588 3 -3 5782 c-1 3181 1 5783 5 5783 5 0 1081 -1611 2393 -3579
1312 -1969 2387 -3578 2390 -3576 3 2 1049 1612 2325 3579 1276 1966 2323
3575 2328 3576 4 0 6 -2602 5 -5783 l-3 -5782 -522 -3 -523 -2 0 -810 0 -810
2380 0 2380 0 0 810 0 810 -597 2 -598 3 -3 7243 -2 7242 895 0 895 0 0 815 0
815 -2152 0 -2153 0 -2320 -4076 c-1275 -2242 -2324 -4082 -2330 -4090 -8 -11
-570 957 -2369 4076 l-2360 4090 -860 0 c-2363 0 -4077 88 -5646 291 -2379
306 -4336 892 -5818 1743 -700 401 -1263 826 -1782 1346 -568 568 -1002 1164
-1359 1870 -619 1221 -937 2587 -1001 4295 -54 1443 149 2744 627 4025 633
1693 1724 3194 3149 4334 1423 1137 3100 1855 4914 2105 298 41 719 76 995 83
l120 3 3 -482 2 -483 810 0 810 0 0 2375 0 2375 -810 0 -810 0 -2 -412z"/>
</g>
</svg>
